<?xml version="1.0" encoding="UTF-8"?>
<svg xmlns="http://www.w3.org/2000/svg" id="Layer_1" data-name="Layer 1" viewBox="0 0 24 24" width="512" height="512"><path d="M17.5,11.039c-3.584,0-6.5,2.916-6.5,6.5,0,3.563,2.916,6.461,6.5,6.461s6.5-2.916,6.5-6.5c0-3.563-2.916-6.461-6.5-6.461Zm0,11.961c-3.032,0-5.5-2.45-5.5-5.461,0-3.033,2.468-5.5,5.5-5.5s5.5,2.45,5.5,5.461c0,3.033-2.468,5.5-5.5,5.5Zm1.354-4.854c.195,.195,.195,.512,0,.707-.098,.098-.226,.146-.354,.146s-.256-.049-.354-.146l-1-1c-.094-.094-.146-.221-.146-.354v-2c0-.276,.224-.5,.5-.5s.5,.224,.5,.5v1.793l.854,.854Zm.646-16.146h-1.5V.5c0-.276-.224-.5-.5-.5s-.5,.224-.5,.5v1.5H7V.5c0-.276-.224-.5-.5-.5s-.5,.224-.5,.5v1.5h-1.5C2.019,2,0,4.019,0,6.5v13c0,2.481,2.019,4.5,4.5,4.5h6c.276,0,.5-.224,.5-.5s-.224-.5-.5-.5H4.5c-1.93,0-3.5-1.57-3.5-3.5V9H23v1.5c0,.276,.224,.5,.5,.5s.5-.224,.5-.5V6.5c0-2.481-2.019-4.5-4.5-4.5ZM1,8v-1.5c0-1.93,1.57-3.5,3.5-3.5h15c1.93,0,3.5,1.57,3.5,3.5v1.5H1Z"/></svg>
