<svg width="35" height="35" viewBox="0 0 35 35" fill="none" xmlns="http://www.w3.org/2000/svg">
<path d="M10.3333 1.375H7.10833C5.10148 1.375 4.09805 1.375 3.33153 1.76556C2.65729 2.10911 2.10911 2.65729 1.76556 3.33153C1.375 4.09805 1.375 5.10148 1.375 7.10833V10.3333M10.3333 33.625H7.10833C5.10148 33.625 4.09805 33.625 3.33153 33.2344C2.65729 32.8909 2.10911 32.3427 1.76556 31.6685C1.375 30.902 1.375 29.8985 1.375 27.8917V24.6667M33.625 10.3333V7.10833C33.625 5.10148 33.625 4.09805 33.2344 3.33153C32.8909 2.65729 32.3427 2.10911 31.6685 1.76556C30.9019 1.375 29.8985 1.375 27.8917 1.375H24.6667M33.625 24.6667V27.8917C33.625 29.8985 33.625 30.902 33.2344 31.6685C32.8909 32.3427 32.3427 32.8909 31.6685 33.2344C30.902 33.625 29.8985 33.625 27.8917 33.625H24.6667M17.5 26.4583L17.5 8.54167M8.54167 17.5H26.4583" stroke="black" stroke-width="1.5" stroke-linecap="round" stroke-linejoin="round"/>
</svg>
